# xmcd CD database file
#
# Track frame offsets:
#	150
#	13735
#	35712
#	53470
#	72145
#	91720
#	120745
#	153840
#	168412
#	195797
#	215087
#	232782
#	248590
#	266987
#	285425
#	323262
#	343832
#
# Disc length: 4738 seconds
#
# Revision: 0
# Processed by: cddbd v1.4PL0 Copyright (c) Steve Scherf et al.
# Submitted via: CDex 1.50beta9
#
DISCID=da128011
DTITLE=Svensk Jazzhistoria - Vol 9 [CD2 of 4)
DYEAR=2003
DGENRE=Jazz
TTITLE0=Jan Johansson-Georg Riedel
TTITLE1=Jan Johansson-Georg Riedel
TTITLE2=Bengt-Arne Wallins Orkester
TTITLE3=Åke Johanssons Trio
TTITLE4=Lasse Lystedt Quintet
TTITLE5=Börje Fredrikssons Kvintett
TTITLE6=Kurt Lindgren and Co
TTITLE7=Arne Domnerus Orkester
TTITLE8=Bengt Hallberg Trio
TTITLE9=Nils Lindberg And His Orchestra
TTITLE10=Alice Babs - Bengt Hallbergs Trio
TTITLE11=Kurt Järnbergs Kvintett
TTITLE12=Gunnar 'Siljabloo' Nilson - Lasse Lindströms Trio
TTITLE13=Jan Allan - Rolf Billbergs Kvintett
TTITLE14=Börje Fredriksson Kvintett
TTITLE15=Thomas Fehlings Sextett
TTITLE16=Nisse Sandströms Kvartett
EXTD=YEAR: 2003
EXTT0=
EXTT1=
EXTT2=
EXTT3=
EXTT4=
EXTT5=
EXTT6=
EXTT7=
EXTT8=
EXTT9=
EXTT10=
EXTT11=
EXTT12=
EXTT13=
EXTT14=
EXTT15=
EXTT16=
PLAYORDER=
